<?xml version="1.0" encoding="utf-8"?>
<!-- Generator: Adobe Illustrator 19.2.1, SVG Export Plug-In . SVG Version: 6.00 Build 0)  -->
<svg version="1.1" id="layer" xmlns="http://www.w3.org/2000/svg" xmlns:xlink="http://www.w3.org/1999/xlink" x="0px" y="0px"
	 viewBox="0 0 652 652" style="enable-background:new 0 0 652 652;" xml:space="preserve">
<path d="M608.4,320.4v-7.3h-8.6v-10.5h-7.3v10.5h-7v7.3h6.8v21.1c0,6.1,5,11.1,11.1,11.1h4.9v-7.3h-4.9c-2.1,0-3.9-1.6-3.9-3.9
	v-21.1H608.4z M565.8,312.4c7.9,0,14.1,6.4,14.1,14.2v11.9c0,7.7-6.4,14.2-14.1,14.2H563c-7.7,0-14.1-6.4-14.1-14.2v-11.9
	c0-7.9,6.4-14.2,14.1-14.2H565.8z M556.3,326.6v11.9c0,3.9,3.1,6.8,6.8,6.8h2.8c3.9,0,6.8-3.1,6.8-6.8v-11.9c0-3.9-3-6.8-6.8-6.8
	h-2.8C559.4,319.6,556.3,322.7,556.3,326.6z M540.9,326.6v11.9c0,7.9-6.4,14.2-14.1,14.2h-0.9c-3.3,0-6.4-1.2-8.8-3.1v15.7h-7.3
	v-52.2h7.3v2.4c2.4-1.9,5.3-3.1,8.8-3.1h0.9C534.5,312.4,540.9,318.7,540.9,326.6z M533.6,326.6c0-3.7-3-6.8-6.8-6.8H524
	c-3.7,0-6.8,3.1-6.8,6.8v11.9c0,3.9,3.1,6.8,6.8,6.8h2.8c3.9,0,6.8-3.1,6.8-6.8V326.6z M475.8,339.8c0.7,3.1,3.4,5.5,6.8,5.5h5
	c3.7,0,6.8-3.1,6.8-6.8c0-4.3-2.7-6.8-6.5-8.3l-6.7-2.5c-6.2-2.4-11.4-6.5-11.4-14.4s6.4-14.2,14.1-14.2h3.6
	c6.5,0,12.2,4.5,13.6,10.7l-7.1,2.1c-0.6-3.1-3.4-5.3-6.7-5.3h-3.6c-3.9,0-6.8,3.1-6.8,6.8c0,3,1,5.2,7,7.6l6.7,2.7
	c6.8,2.8,11.1,7.9,11.1,15c0,7.9-6.4,14.1-14.1,14.1h-5c-6.7,0-12.2-4.6-13.8-10.7L475.8,339.8z M461.8,320.4v-7.3h-8.6v-10.5h-7.3
	v10.5h-6.8v7.3h6.8v21.1c0,6.1,5,11.1,11.1,11.1h4.9v-7.3h-4.9c-2.1,0-3.9-1.6-3.9-3.9v-21.1H461.8z M432.6,326.6V352h-7.3v-25.4
	c0-3.9-3-6.8-6.8-6.8h-2.8c-3.7,0-6.8,3.1-6.8,6.8V352h-7.3v-52.2h7.3v15.7c2.4-1.9,5.3-3.1,8.8-3.1h0.9
	C426.3,312.4,432.6,318.7,432.6,326.6z M392.1,313.1v38.6c0,7.9-6.2,14.1-14.1,14.1h-3c-6.7,0-12.2-4.6-13.6-10.7l7-2.1
	c0.7,3,3.4,5.3,6.7,5.3h3c3.7,0,6.8-3.1,6.8-6.8v-4.6c-2.4,1.9-5.3,3.1-8.8,3.1h-0.9c-7.7,0-14.1-6.4-14.1-14.2v-9.5
	c0-7.9,6.4-14.2,14.1-14.2h0.9c3.3,0,6.4,1.2,8.8,3.1v-2.4L392.1,313.1L392.1,313.1z M384.8,336.1v-9.5c0-3.9-3-6.8-6.8-6.8h-2.8
	c-3.7,0-6.8,3.1-6.8,6.8v9.5c0,3.7,3.1,6.8,6.8,6.8h2.8C381.7,342.9,384.8,339.8,384.8,336.1z M329,313.1v25.4c0,3.9,3,6.8,6.8,6.8
	h2.8c3.9,0,6.8-3.1,6.8-6.8v-25.4h7.3v25.4c0,7.9-6.4,14.1-14.1,14.1h-2.8c-7.9,0-14.1-6.4-14.1-14.2v-25.2H329L329,313.1z
	 M299,312.4c7.9,0,14.1,6.4,14.1,14.2v11.9c0,7.7-6.4,14.2-14.1,14.2h-2.8c-7.7,0-14.1-6.4-14.1-14.2v-11.9
	c0-7.9,6.4-14.2,14.1-14.2H299z M289.4,326.6v11.9c0,3.9,3.1,6.8,6.8,6.8h2.8c3.9,0,6.8-3.1,6.8-6.8v-11.9c0-3.9-3-6.8-6.8-6.8h-2.8
	C292.5,319.6,289.4,322.7,289.4,326.6z M273.7,326.6V352h-7.3v-25.4c0-3.9-3-6.8-6.8-6.8h-2.8c-3.7,0-6.8,3.1-6.8,6.8V352h-7.3
	v-52.2h7.3v15.7c2.4-1.9,5.3-3.1,8.8-3.1h0.9C267.3,312.4,273.7,318.7,273.7,326.6z M234.8,299.7v7.3h-14.7v44.8h-7.3v-44.7h-14.7
	v-7.3L234.8,299.7L234.8,299.7z M128.4,355.5c8,0,14.5,6.5,14.5,14.5c0,8-6.5,14.5-14.5,14.5s-14.5-6.5-14.5-14.5
	C113.9,362,120.4,355.5,128.4,355.5z M141.9,296.9H26.2v7.3H66v79.5h7.3v-79.5h7.3v79.5h7.1v-79.5h7.3v79.5h7.3v-79.5h39.8V296.9z
	 M26.2,282.5h115.7v7.3H26.2V282.5z M26.2,268h115.7v7.3H26.2V268z M620.3,352.7c3.3,0,5.9-2.7,5.9-5.9s-2.7-5.9-5.9-5.9
	c-3.4,0-5.9,2.7-5.9,5.9S616.9,352.7,620.3,352.7z M620.3,351.7c-2.7,0-4.7-2.2-4.7-4.9s2.1-4.9,4.7-4.9s4.7,2.2,4.7,4.9
	S622.9,351.7,620.3,351.7z M619.2,350.2v-2.7h0.7l1.6,2.7h1.3l-1.6-2.8c0.9-0.3,1.6-0.9,1.6-1.9c0-0.6-0.3-1.2-0.7-1.6
	c-0.4-0.3-1-0.4-1.8-0.4H618v6.7h1.2V350.2z M620.3,346.5h-1v-2.1h1c0.9,0,1.5,0.3,1.5,1C621.7,346.2,621.2,346.5,620.3,346.5z"/>
</svg>
